<svg xmlns="http://www.w3.org/2000/svg" style="display: none;">
  <defs>

    <symbol id="behance-icon" viewBox="0 0 34 34">
      <!-- all the paths and shapes and whatnot for this icon -->
      	<path d="M21.6,15.8c-0.5,0-0.9,0.1-1.2,0.4c-0.3,0.3-0.5,0.7-0.5,1.2h3.5c0-0.5-0.2-0.9-0.5-1.2C22.5,16,22.1,15.8,21.6,15.8z"/>
		<path d="M14.2,17.7c-0.2-0.1-0.6-0.2-1.1-0.2h-2.6v2.8h2.6c0.5,0,0.8-0.1,1.1-0.2c0.5-0.2,0.7-0.7,0.7-1.3
			C14.9,18.3,14.7,17.9,14.2,17.7z"/>
		<path d="M14.3,15.5c0.3-0.2,0.4-0.5,0.4-0.9c0-0.5-0.2-0.8-0.6-1c-0.3-0.1-0.7-0.2-1.2-0.2h-2.3v2.3h2.6
			C13.6,15.8,14,15.7,14.3,15.5z"/>
		<path d="M17,0C7.6,0,0,7.6,0,17c0,9.4,7.6,17,17,17c9.4,0,17-7.6,17-17C34,7.6,26.4,0,17,0z M19.4,12.1h4.5v1.3h-4.5V12.1z
			 M16.6,20.6c-0.2,0.3-0.4,0.6-0.7,0.8c-0.3,0.3-0.7,0.4-1.2,0.5c-0.5,0.1-1,0.1-1.5,0.1H8.5V11.6h5.1c1.3,0,2.2,0.4,2.7,1.1
			c0.3,0.4,0.5,1,0.5,1.6c0,0.6-0.2,1.2-0.5,1.5c-0.2,0.2-0.4,0.4-0.8,0.6c0.5,0.2,0.9,0.5,1.2,0.9c0.3,0.4,0.4,0.9,0.4,1.5
			C17.1,19.6,17,20.1,16.6,20.6z M25.5,18.8h-5.7c0,0.8,0.3,1.3,0.8,1.6c0.3,0.2,0.7,0.3,1.1,0.3c0.5,0,0.8-0.1,1.1-0.4
			c0.2-0.1,0.3-0.3,0.4-0.5h2.1c-0.1,0.5-0.3,0.9-0.8,1.4c-0.7,0.8-1.7,1.1-2.9,1.1c-1,0-1.9-0.3-2.7-1c-0.8-0.6-1.2-1.7-1.2-3.1
			c0-1.3,0.4-2.4,1.1-3.1c0.7-0.7,1.6-1.1,2.8-1.1c0.7,0,1.3,0.1,1.8,0.4c0.5,0.2,1,0.6,1.3,1.1c0.3,0.5,0.5,1,0.6,1.6
			C25.5,17.6,25.5,18.1,25.5,18.8z"/>
    </symbol>

    <symbol id="twitter-icon" viewBox="0 0 34 34">
      <!-- all the paths and shapes and whatnot for this icon -->
		<path d="M17,0C7.6,0,0,7.6,0,17c0,9.4,7.6,17,17,17c9.4,0,17-7.6,17-17C34,7.6,26.4,0,17,0z M23.8,14.4c0,0.1,0,0.3,0,0.5
		c0,4.6-3.5,9.9-9.9,9.9c-2,0-3.8-0.6-5.4-1.6c0.3,0,0.6,0,0.8,0c1.6,0,3.1-0.6,4.3-1.5c-1.5,0-2.8-1-3.3-2.4c0.2,0,0.4,0.1,0.7,0.1
		c0.3,0,0.6,0,0.9-0.1c-1.6-0.3-2.8-1.7-2.8-3.4v0c0.5,0.3,1,0.4,1.6,0.4c-0.9-0.6-1.6-1.7-1.6-2.9c0-0.6,0.2-1.2,0.5-1.8
		c1.7,2.1,4.3,3.5,7.2,3.7c-0.1-0.3-0.1-0.5-0.1-0.8c0-1.9,1.6-3.5,3.5-3.5c1,0,1.9,0.4,2.5,1.1c0.8-0.2,1.5-0.4,2.2-0.8
		c-0.3,0.8-0.8,1.5-1.5,1.9c0.7-0.1,1.4-0.3,2-0.5C25.1,13.2,24.5,13.9,23.8,14.4z"/>
    </symbol>

    <symbol id="linkedIn-icon" viewBox="0 0 34 34">
    	<path d="M17,0C7.6,0,0,7.6,0,17c0,9.4,7.6,17,17,17c9.4,0,17-7.6,17-17C34,7.6,26.4,0,17,0z M12.2,24.1H8.9V13.5h3.3V24.1z
		 M10.5,12.2L10.5,12.2c-1.2,0-2-0.8-2-1.8c0-1,0.8-1.8,2-1.8c1.2,0,2,0.8,2,1.8C12.5,11.4,11.7,12.2,10.5,12.2z M25.5,24.1h-3.8
		v-5.5c0-1.4-0.6-2.4-1.9-2.4c-1,0-1.5,0.7-1.8,1.3C18,17.7,18,18.1,18,18.4v5.7h-3.7c0,0,0-9.7,0-10.6H18v1.7
		c0.2-0.7,1.4-1.8,3.3-1.8c2.4,0,4.2,1.5,4.2,4.8V24.1z"/>
    </symbol>

    <symbol id="mail-icon" viewBox="0 0 34 34">
    	<path d="M17,0C7.6,0,0,7.6,0,17c0,9.4,7.6,17,17,17c9.4,0,17-7.6,17-17C34,7.6,26.4,0,17,0z M24,11.4l-6.5,6.5
		c-0.3,0.3-0.8,0.3-1.1,0L10,11.4H24z M25,21.8c0,0.4-0.4,0.8-0.8,0.8H9.8c-0.4,0-0.8-0.4-0.8-0.8v-9.4l7.4,7.4
		c0.3,0.3,0.8,0.3,1.1,0l7.4-7.4V21.8z"/>
    </symbol>

    <symbol id="back-icon" viewBox="0 0 8 14">
		<path d="M8,1.1v11.9c0,0.9-1.1,1.4-1.8,0.8L0.3,7.8c-0.4-0.4-0.4-1.1,0-1.5l5.9-5.9
			C6.9-0.4,8,0.1,8,1.1z"/>
	</symbol>

	<symbol id="lock-icon" viewBox="0 0 26.7 34">
		<path fill="#010202" d="M23,14.6C22.8,7.8,21.5,0,13.4,0S3.9,7.8,3.7,14.6H0V34h26.7V14.6H23z M14.6,23.9l-1.2,4l0,0l-1.2-4
		c-0.7-0.4-1.2-1.2-1.2-2.1c0-1.3,1.1-2.4,2.4-2.4s2.4,1.1,2.4,2.4C15.8,22.8,15.3,23.5,14.6,23.9z M7.4,14.6c0.3-8.2,2-10.9,6-10.9
		s5.7,2.7,6,10.9H7.4z"/>
	</symbol>

	<symbol id="logo" viewBox="0 0 244.1 28">
		<g>
			<g>
				<path d="M0.6,27.6h3c0.3,0,0.6-0.2,0.6-0.6v-8.5c0-0.3,0.2-0.6,0.6-0.6l5.8,0c0.4,0.1,0.6-0.2,0.6-0.6v-3c0-0.3-0.2-0.6-0.6-0.6
					H4.7c-0.3,0-0.6-0.2-0.6-0.6V4.7c0-0.3,0.2-0.6,0.6-0.6h8.5c0.3,0,0.6-0.2,0.6-0.6v-3c0-0.3-0.2-0.6-0.6-0.6H0.6
					C0.2,0.1,0,0.3,0,0.6v26.4C0,27.4,0.2,27.6,0.6,27.6z"/>
				<path d="M83.2,0.1h3c0.3,0,0.6,0.2,0.6,0.6v9.1v13.2c0,0.3,0.2,0.6,0.6,0.6h8.5c0.3,0,0.6,0.2,0.6,0.6v3c0,0.3-0.2,0.6-0.6,0.6
					H83.2c-0.3,0-0.6-0.2-0.6-0.6V0.6C82.6,0.3,82.9,0.1,83.2,0.1z"/>
				<path d="M50.1,0.1c-0.3,0-0.6,0.2-0.6,0.6v26.4c0,0.3,0.2,0.6,0.6,0.6h3c0.3,0,0.6-0.2,0.6-0.6V15.4c0-0.6,0.9-0.8,1.1-0.2l4.3,12
					c0.1,0.2,0.3,0.4,0.5,0.4h3.2c0.3,0,0.6-0.2,0.6-0.6V0.6c0-0.3-0.2-0.6-0.6-0.6h-3c-0.3,0-0.6,0.2-0.6,0.6v11.6
					c0,0.6-0.9,0.8-1.1,0.2l-4.3-12c-0.1-0.2-0.3-0.4-0.5-0.4L50.1,0.1z"/>
				<path d="M42.7,0.1h-5.5h-3.6c-0.3,0-0.6,0.2-0.6,0.6v3.6v10.3v4.1v8.4c0,0.3,0.2,0.6,0.6,0.6h3c0.3,0,0.6-0.2,0.6-0.6v-8.5
					c0-0.3,0.2-0.6,0.6-0.6h4.4c0.3,0,0.6,0.2,0.6,0.6v8.5c0,0.3,0.2,0.6,0.6,0.6h3c0.3,0,0.6-0.2,0.6-0.6v-8.4v-4.1V4.2V0.6
					c0-0.3-0.2-0.6-0.6-0.6H42.7z M42.1,13.8h-4.4c-0.3,0-0.6-0.2-0.6-0.6V4.7c0-0.3,0.2-0.6,0.6-0.6h4.4c0.3,0,0.6,0.2,0.6,0.6v8.5
					C42.7,13.6,42.4,13.8,42.1,13.8z"/>
				<path d="M30.1,14c0.1-0.1,0.2-0.2,0.2-0.4V4.2V0.6c0-0.3-0.2-0.6-0.6-0.6h-3.6h-5.5h-3.6c-0.3,0-0.6,0.2-0.6,0.6v3.6v11v4.1v7.7
					c0,0.3,0.2,0.6,0.6,0.6h3c0.3,0,0.6-0.2,0.6-0.6v-8.5c0-0.3,0.2-0.6,0.6-0.6h4.4c0.3,0,0.6,0.2,0.6,0.6v8.5c0,0.3,0.2,0.6,0.6,0.6
					h3c0.3,0,0.6-0.2,0.6-0.6v-8.9c0-0.1-0.1-0.3-0.2-0.4l-1.5-1.5c-0.2-0.2-0.2-0.6,0-0.8L30.1,14z M25.6,13.8h-4.4
					c-0.3,0-0.6-0.2-0.6-0.6V4.7c0-0.3,0.2-0.6,0.6-0.6h4.4c0.3,0,0.6,0.2,0.6,0.6v8.5C26.2,13.6,25.9,13.8,25.6,13.8z"/>
				<path d="M79.3,0.1h-2.4c-0.2,0-0.4,0.1-0.5,0.3l-5.2,10c-0.3,0.5-1,0.3-1-0.3V0.6c0-0.3-0.2-0.6-0.6-0.6h-3
					c-0.3,0-0.6,0.2-0.6,0.6v26.4c0,0.3,0.2,0.6,0.6,0.6h3c0.3,0,0.6-0.2,0.6-0.6v-6.2c0-0.1,0-0.2,0.1-0.3l0.9-1.5
					c0.2-0.4,0.8-0.3,1,0l4.3,8.2c0.1,0.2,0.3,0.3,0.5,0.3h2.4c0.3,0,0.6-0.2,0.6-0.6V25c0-0.1,0-0.2-0.1-0.3l-5.5-10.6
					c-0.1-0.2-0.1-0.3,0-0.5l5.5-10.6c0-0.1,0.1-0.2,0.1-0.3V0.6C79.9,0.3,79.6,0.1,79.3,0.1z"/>
				<path d="M108.6,0.1h-2.3c-0.3,0-0.5,0.2-0.5,0.4l-3,10.8c-0.1,0.5-0.9,0.5-1.1,0l-3-10.8c-0.1-0.2-0.3-0.4-0.5-0.4H96
					c-0.3,0-0.6,0.2-0.6,0.6v2.1c0,0,0,0.1,0,0.2l4.8,14.8c0,0,0,0.1,0,0.2v9.1c0,0.3,0.2,0.6,0.6,0.6h3c0.3,0,0.6-0.2,0.6-0.6v-9.1
					c0-0.1,0-0.1,0-0.2l4.8-14.8c0,0,0-0.1,0-0.2V0.6C109.2,0.3,108.9,0.1,108.6,0.1z"/>
			</g>
			<g>
				<path d="M115.2,0.1c-0.3,0-0.6,0.2-0.6,0.6v26.4c0,0.3,0.2,0.6,0.6,0.6h3c0.3,0,0.6-0.2,0.6-0.6V15.5c0-0.6,0.9-0.8,1.1-0.2
					l4.3,12c0.1,0.2,0.3,0.4,0.5,0.4h3.2c0.3,0,0.6-0.2,0.6-0.6V0.7c0-0.3-0.2-0.6-0.6-0.6h-3c-0.3,0-0.6,0.2-0.6,0.6v11.6
					c0,0.6-0.9,0.8-1.1,0.2l-4.3-12c-0.1-0.2-0.3-0.4-0.5-0.4L115.2,0.1z"/>
				<path d="M148.2,0.1c-0.3,0-0.6,0.2-0.6,0.6v26.4c0,0.3,0.2,0.6,0.6,0.6h3c0.3,0,0.6-0.2,0.6-0.6V15.5c0-0.6,0.9-0.8,1.1-0.2
					l4.3,12c0.1,0.2,0.3,0.4,0.5,0.4h3.2c0.3,0,0.6-0.2,0.6-0.6V0.7c0-0.3-0.2-0.6-0.6-0.6h-3c-0.3,0-0.6,0.2-0.6,0.6v11.6
					c0,0.6-0.9,0.8-1.1,0.2l-4.3-12c-0.1-0.2-0.3-0.4-0.5-0.4L148.2,0.1z"/>
				<path d="M205.8,12.5c0.2,0.6,1.1,0.4,1.1-0.2V0.7c0-0.3,0.2-0.6,0.6-0.6h3c0.3,0,0.6,0.2,0.6,0.6v26.4c0,0.3-0.2,0.6-0.6,0.6h-3.2
					c-0.2,0-0.4-0.1-0.5-0.4l-4.3-12c-0.2-0.6-1.1-0.4-1.1,0.2v11.6c0,0.3-0.2,0.6-0.6,0.6h-3c-0.3,0-0.6-0.2-0.6-0.6V0.7
					c0-0.3,0.2-0.6,0.6-0.6h3.2c0.2,0,0.4,0.1,0.5,0.4L205.8,12.5z"/>
				<path d="M180.8,27c0,0.3,0.2,0.6,0.6,0.6h3.6h9.1c0.3,0,0.6-0.2,0.6-0.6v-3c0-0.3-0.2-0.6-0.6-0.6h-8.5c-0.3,0-0.6-0.2-0.6-0.6
					v-4.4c0-0.3,0.2-0.6,0.6-0.6h8.5c0.3,0,0.6-0.2,0.6-0.6v-3c0-0.3-0.2-0.6-0.6-0.6h-8.5c-0.3,0-0.6-0.2-0.6-0.6V4.7
					c0-0.3,0.2-0.6,0.6-0.6h8.5c0.3,0,0.6-0.2,0.6-0.6v-3c0-0.3-0.2-0.6-0.6-0.6h-12.7c-0.3,0-0.6,0.2-0.6,0.6V27z"/>
				<path d="M230.3,27c0,0.3,0.2,0.6,0.6,0.6h3.6h9.1c0.3,0,0.6-0.2,0.6-0.6v-3c0-0.3-0.2-0.6-0.6-0.6H235c-0.3,0-0.6-0.2-0.6-0.6
					v-4.4c0-0.3,0.2-0.6,0.6-0.6h8.5c0.3,0,0.6-0.2,0.6-0.6v-3c0-0.3-0.2-0.6-0.6-0.6H235c-0.3,0-0.6-0.2-0.6-0.6V4.7
					c0-0.3,0.2-0.6,0.6-0.6h8.5c0.3,0,0.6-0.2,0.6-0.6v-3c0-0.3-0.2-0.6-0.6-0.6h-12.7c-0.3,0-0.6,0.2-0.6,0.6V27z"/>
				<path d="M140.8,22.9c0,0.3-0.2,0.6-0.6,0.6h-4.4c-0.3,0-0.6-0.2-0.6-0.6V4.8c0-0.3,0.2-0.6,0.6-0.6h4.4c0.3,0,0.6,0.2,0.6,0.6
					V22.9z M131.7,0.1c-0.3,0-0.6,0.2-0.6,0.6V27c0,0.3,0.2,0.6,0.6,0.6h12.7c0.3,0,0.6-0.2,0.6-0.6V0.7c0-0.3-0.2-0.6-0.6-0.6H131.7z
					"/>
				<path d="M164.8,22c-0.3,0-0.6,0.2-0.6,0.6V27c0,0.3,0.2,0.6,0.6,0.6h12.7c0.3,0,0.6-0.2,0.6-0.6l0-9.1v-3.4c0-0.4-0.3-0.7-0.7-0.7
					l-3.4,0h-2.8h-2.2c-0.3,0-0.6-0.2-0.6-0.6V4.8c0-0.3,0.2-0.6,0.6-0.6h5V5c0,0.3,0.2,0.6,0.6,0.6h3c0.3,0,0.6-0.2,0.6-0.6V0.7
					c0-0.3-0.2-0.6-0.6-0.6h-12.7c-0.3,0-0.6,0.2-0.6,0.6v13.1v1.4v2.2c0,0.3,0.2,0.6,0.6,0.6h8.5c0.3,0,0.6,0.2,0.6,0.6v4.4
					c0,0.3-0.2,0.6-0.6,0.6h-5v-0.8c0-0.3-0.2-0.6-0.6-0.6H164.8z"/>
				<path d="M227.6,17.9L227.6,17.9l0,9.1c0,0.3-0.2,0.6-0.6,0.6h-12.7c-0.3,0-0.6-0.2-0.6-0.6v-4.4c0-0.3,0.2-0.6,0.6-0.6h3
					c0.3,0,0.6,0.2,0.6,0.6v0.8h5c0.3,0,0.6-0.2,0.6-0.6v-4.4c0-0.3-0.2-0.6-0.6-0.6h-8.5c-0.3,0-0.6-0.2-0.6-0.6v-2.2v-1.4V0.7
					c0-0.3,0.2-0.6,0.6-0.6H227c0.3,0,0.6,0.2,0.6,0.6V5c0,0.3-0.2,0.6-0.6,0.6h-3c-0.3,0-0.6-0.2-0.6-0.6V4.2h-5
					c-0.3,0-0.6,0.2-0.6,0.6v8.4c0,0.3,0.2,0.6,0.6,0.6h2.2h2.8h3.6c0.3,0,0.6,0.2,0.6,0.6L227.6,17.9z"/>
			</g>
		</g>
	</symbol>

  </defs>
</svg>