<?xml version="1.0" encoding="utf-8"?>
<!-- Generator: Adobe Illustrator 17.1.0, SVG Export Plug-In . SVG Version: 6.00 Build 0)  -->
<!DOCTYPE svg PUBLIC "-//W3C//DTD SVG 1.1//EN" "http://www.w3.org/Graphics/SVG/1.1/DTD/svg11.dtd">
<svg version="1.1" id="Layer_1" xmlns="http://www.w3.org/2000/svg" xmlns:xlink="http://www.w3.org/1999/xlink" x="0px" y="0px"
	 viewBox="0 0 34 34" enable-background="new 0 0 34 34" xml:space="preserve">
<path d="M17,0C7.6,0,0,7.6,0,17c0,9.4,7.6,17,17,17c9.4,0,17-7.6,17-17C34,7.6,26.4,0,17,0z M24,11.4l-6.5,6.5
	c-0.3,0.3-0.8,0.3-1.1,0L10,11.4H24z M25,21.8c0,0.4-0.4,0.8-0.8,0.8H9.8c-0.4,0-0.8-0.4-0.8-0.8v-9.4l7.4,7.4
	c0.3,0.3,0.8,0.3,1.1,0l7.4-7.4V21.8z"/>
</svg>
