<?xml version="1.0" encoding="utf-8"?>
<!-- Generator: Adobe Illustrator 17.1.0, SVG Export Plug-In . SVG Version: 6.00 Build 0)  -->
<!DOCTYPE svg PUBLIC "-//W3C//DTD SVG 1.1//EN" "http://www.w3.org/Graphics/SVG/1.1/DTD/svg11.dtd">
<svg version="1.1" id="Layer_1" xmlns="http://www.w3.org/2000/svg" xmlns:xlink="http://www.w3.org/1999/xlink" x="0px" y="0px"
	 viewBox="0 0 26.7 34" enable-background="new 0 0 26.7 34" xml:space="preserve">
<path fill="#010202" d="M23,14.6C22.8,7.8,21.5,0,13.4,0S3.9,7.8,3.7,14.6H0V34h26.7V14.6H23z M14.6,23.9l-1.2,4l0,0l-1.2-4
	c-0.7-0.4-1.2-1.2-1.2-2.1c0-1.3,1.1-2.4,2.4-2.4s2.4,1.1,2.4,2.4C15.8,22.8,15.3,23.5,14.6,23.9z M7.4,14.6c0.3-8.2,2-10.9,6-10.9
	s5.7,2.7,6,10.9H7.4z"/>
</svg>
