<?xml version="1.0" encoding="utf-8"?>
<!-- Generator: Adobe Illustrator 17.1.0, SVG Export Plug-In . SVG Version: 6.00 Build 0)  -->
<!DOCTYPE svg PUBLIC "-//W3C//DTD SVG 1.1//EN" "http://www.w3.org/Graphics/SVG/1.1/DTD/svg11.dtd">
<svg version="1.1" id="Layer_1" xmlns="http://www.w3.org/2000/svg" xmlns:xlink="http://www.w3.org/1999/xlink" x="0px" y="0px"
	 viewBox="0 0 244.1 28" enable-background="new 0 0 244.1 28" xml:space="preserve">
<g>
	<g>
		<path d="M0.6,27.6h3c0.3,0,0.6-0.2,0.6-0.6v-8.5c0-0.3,0.2-0.6,0.6-0.6l5.8,0c0.4,0.1,0.6-0.2,0.6-0.6v-3c0-0.3-0.2-0.6-0.6-0.6
			H4.7c-0.3,0-0.6-0.2-0.6-0.6V4.7c0-0.3,0.2-0.6,0.6-0.6h8.5c0.3,0,0.6-0.2,0.6-0.6v-3c0-0.3-0.2-0.6-0.6-0.6H0.6
			C0.2,0.1,0,0.3,0,0.6v26.4C0,27.4,0.2,27.6,0.6,27.6z"/>
		<path d="M83.2,0.1h3c0.3,0,0.6,0.2,0.6,0.6v9.1v13.2c0,0.3,0.2,0.6,0.6,0.6h8.5c0.3,0,0.6,0.2,0.6,0.6v3c0,0.3-0.2,0.6-0.6,0.6
			H83.2c-0.3,0-0.6-0.2-0.6-0.6V0.6C82.6,0.3,82.9,0.1,83.2,0.1z"/>
		<path d="M50.1,0.1c-0.3,0-0.6,0.2-0.6,0.6v26.4c0,0.3,0.2,0.6,0.6,0.6h3c0.3,0,0.6-0.2,0.6-0.6V15.4c0-0.6,0.9-0.8,1.1-0.2l4.3,12
			c0.1,0.2,0.3,0.4,0.5,0.4h3.2c0.3,0,0.6-0.2,0.6-0.6V0.6c0-0.3-0.2-0.6-0.6-0.6h-3c-0.3,0-0.6,0.2-0.6,0.6v11.6
			c0,0.6-0.9,0.8-1.1,0.2l-4.3-12c-0.1-0.2-0.3-0.4-0.5-0.4L50.1,0.1z"/>
		<path d="M42.7,0.1h-5.5h-3.6c-0.3,0-0.6,0.2-0.6,0.6v3.6v10.3v4.1v8.4c0,0.3,0.2,0.6,0.6,0.6h3c0.3,0,0.6-0.2,0.6-0.6v-8.5
			c0-0.3,0.2-0.6,0.6-0.6h4.4c0.3,0,0.6,0.2,0.6,0.6v8.5c0,0.3,0.2,0.6,0.6,0.6h3c0.3,0,0.6-0.2,0.6-0.6v-8.4v-4.1V4.2V0.6
			c0-0.3-0.2-0.6-0.6-0.6H42.7z M42.1,13.8h-4.4c-0.3,0-0.6-0.2-0.6-0.6V4.7c0-0.3,0.2-0.6,0.6-0.6h4.4c0.3,0,0.6,0.2,0.6,0.6v8.5
			C42.7,13.6,42.4,13.8,42.1,13.8z"/>
		<path d="M30.1,14c0.1-0.1,0.2-0.2,0.2-0.4V4.2V0.6c0-0.3-0.2-0.6-0.6-0.6h-3.6h-5.5h-3.6c-0.3,0-0.6,0.2-0.6,0.6v3.6v11v4.1v7.7
			c0,0.3,0.2,0.6,0.6,0.6h3c0.3,0,0.6-0.2,0.6-0.6v-8.5c0-0.3,0.2-0.6,0.6-0.6h4.4c0.3,0,0.6,0.2,0.6,0.6v8.5c0,0.3,0.2,0.6,0.6,0.6
			h3c0.3,0,0.6-0.2,0.6-0.6v-8.9c0-0.1-0.1-0.3-0.2-0.4l-1.5-1.5c-0.2-0.2-0.2-0.6,0-0.8L30.1,14z M25.6,13.8h-4.4
			c-0.3,0-0.6-0.2-0.6-0.6V4.7c0-0.3,0.2-0.6,0.6-0.6h4.4c0.3,0,0.6,0.2,0.6,0.6v8.5C26.2,13.6,25.9,13.8,25.6,13.8z"/>
		<path d="M79.3,0.1h-2.4c-0.2,0-0.4,0.1-0.5,0.3l-5.2,10c-0.3,0.5-1,0.3-1-0.3V0.6c0-0.3-0.2-0.6-0.6-0.6h-3
			c-0.3,0-0.6,0.2-0.6,0.6v26.4c0,0.3,0.2,0.6,0.6,0.6h3c0.3,0,0.6-0.2,0.6-0.6v-6.2c0-0.1,0-0.2,0.1-0.3l0.9-1.5
			c0.2-0.4,0.8-0.3,1,0l4.3,8.2c0.1,0.2,0.3,0.3,0.5,0.3h2.4c0.3,0,0.6-0.2,0.6-0.6V25c0-0.1,0-0.2-0.1-0.3l-5.5-10.6
			c-0.1-0.2-0.1-0.3,0-0.5l5.5-10.6c0-0.1,0.1-0.2,0.1-0.3V0.6C79.9,0.3,79.6,0.1,79.3,0.1z"/>
		<path d="M108.6,0.1h-2.3c-0.3,0-0.5,0.2-0.5,0.4l-3,10.8c-0.1,0.5-0.9,0.5-1.1,0l-3-10.8c-0.1-0.2-0.3-0.4-0.5-0.4H96
			c-0.3,0-0.6,0.2-0.6,0.6v2.1c0,0,0,0.1,0,0.2l4.8,14.8c0,0,0,0.1,0,0.2v9.1c0,0.3,0.2,0.6,0.6,0.6h3c0.3,0,0.6-0.2,0.6-0.6v-9.1
			c0-0.1,0-0.1,0-0.2l4.8-14.8c0,0,0-0.1,0-0.2V0.6C109.2,0.3,108.9,0.1,108.6,0.1z"/>
	</g>
	<g>
		<path d="M115.2,0.1c-0.3,0-0.6,0.2-0.6,0.6v26.4c0,0.3,0.2,0.6,0.6,0.6h3c0.3,0,0.6-0.2,0.6-0.6V15.5c0-0.6,0.9-0.8,1.1-0.2
			l4.3,12c0.1,0.2,0.3,0.4,0.5,0.4h3.2c0.3,0,0.6-0.2,0.6-0.6V0.7c0-0.3-0.2-0.6-0.6-0.6h-3c-0.3,0-0.6,0.2-0.6,0.6v11.6
			c0,0.6-0.9,0.8-1.1,0.2l-4.3-12c-0.1-0.2-0.3-0.4-0.5-0.4L115.2,0.1z"/>
		<path d="M148.2,0.1c-0.3,0-0.6,0.2-0.6,0.6v26.4c0,0.3,0.2,0.6,0.6,0.6h3c0.3,0,0.6-0.2,0.6-0.6V15.5c0-0.6,0.9-0.8,1.1-0.2
			l4.3,12c0.1,0.2,0.3,0.4,0.5,0.4h3.2c0.3,0,0.6-0.2,0.6-0.6V0.7c0-0.3-0.2-0.6-0.6-0.6h-3c-0.3,0-0.6,0.2-0.6,0.6v11.6
			c0,0.6-0.9,0.8-1.1,0.2l-4.3-12c-0.1-0.2-0.3-0.4-0.5-0.4L148.2,0.1z"/>
		<path d="M205.8,12.5c0.2,0.6,1.1,0.4,1.1-0.2V0.7c0-0.3,0.2-0.6,0.6-0.6h3c0.3,0,0.6,0.2,0.6,0.6v26.4c0,0.3-0.2,0.6-0.6,0.6h-3.2
			c-0.2,0-0.4-0.1-0.5-0.4l-4.3-12c-0.2-0.6-1.1-0.4-1.1,0.2v11.6c0,0.3-0.2,0.6-0.6,0.6h-3c-0.3,0-0.6-0.2-0.6-0.6V0.7
			c0-0.3,0.2-0.6,0.6-0.6h3.2c0.2,0,0.4,0.1,0.5,0.4L205.8,12.5z"/>
		<path d="M180.8,27c0,0.3,0.2,0.6,0.6,0.6h3.6h9.1c0.3,0,0.6-0.2,0.6-0.6v-3c0-0.3-0.2-0.6-0.6-0.6h-8.5c-0.3,0-0.6-0.2-0.6-0.6
			v-4.4c0-0.3,0.2-0.6,0.6-0.6h8.5c0.3,0,0.6-0.2,0.6-0.6v-3c0-0.3-0.2-0.6-0.6-0.6h-8.5c-0.3,0-0.6-0.2-0.6-0.6V4.7
			c0-0.3,0.2-0.6,0.6-0.6h8.5c0.3,0,0.6-0.2,0.6-0.6v-3c0-0.3-0.2-0.6-0.6-0.6h-12.7c-0.3,0-0.6,0.2-0.6,0.6V27z"/>
		<path d="M230.3,27c0,0.3,0.2,0.6,0.6,0.6h3.6h9.1c0.3,0,0.6-0.2,0.6-0.6v-3c0-0.3-0.2-0.6-0.6-0.6H235c-0.3,0-0.6-0.2-0.6-0.6
			v-4.4c0-0.3,0.2-0.6,0.6-0.6h8.5c0.3,0,0.6-0.2,0.6-0.6v-3c0-0.3-0.2-0.6-0.6-0.6H235c-0.3,0-0.6-0.2-0.6-0.6V4.7
			c0-0.3,0.2-0.6,0.6-0.6h8.5c0.3,0,0.6-0.2,0.6-0.6v-3c0-0.3-0.2-0.6-0.6-0.6h-12.7c-0.3,0-0.6,0.2-0.6,0.6V27z"/>
		<path d="M140.8,22.9c0,0.3-0.2,0.6-0.6,0.6h-4.4c-0.3,0-0.6-0.2-0.6-0.6V4.8c0-0.3,0.2-0.6,0.6-0.6h4.4c0.3,0,0.6,0.2,0.6,0.6
			V22.9z M131.7,0.1c-0.3,0-0.6,0.2-0.6,0.6V27c0,0.3,0.2,0.6,0.6,0.6h12.7c0.3,0,0.6-0.2,0.6-0.6V0.7c0-0.3-0.2-0.6-0.6-0.6H131.7z
			"/>
		<path d="M164.8,22c-0.3,0-0.6,0.2-0.6,0.6V27c0,0.3,0.2,0.6,0.6,0.6h12.7c0.3,0,0.6-0.2,0.6-0.6l0-9.1v-3.4c0-0.4-0.3-0.7-0.7-0.7
			l-3.4,0h-2.8h-2.2c-0.3,0-0.6-0.2-0.6-0.6V4.8c0-0.3,0.2-0.6,0.6-0.6h5V5c0,0.3,0.2,0.6,0.6,0.6h3c0.3,0,0.6-0.2,0.6-0.6V0.7
			c0-0.3-0.2-0.6-0.6-0.6h-12.7c-0.3,0-0.6,0.2-0.6,0.6v13.1v1.4v2.2c0,0.3,0.2,0.6,0.6,0.6h8.5c0.3,0,0.6,0.2,0.6,0.6v4.4
			c0,0.3-0.2,0.6-0.6,0.6h-5v-0.8c0-0.3-0.2-0.6-0.6-0.6H164.8z"/>
		<path d="M227.6,17.9L227.6,17.9l0,9.1c0,0.3-0.2,0.6-0.6,0.6h-12.7c-0.3,0-0.6-0.2-0.6-0.6v-4.4c0-0.3,0.2-0.6,0.6-0.6h3
			c0.3,0,0.6,0.2,0.6,0.6v0.8h5c0.3,0,0.6-0.2,0.6-0.6v-4.4c0-0.3-0.2-0.6-0.6-0.6h-8.5c-0.3,0-0.6-0.2-0.6-0.6v-2.2v-1.4V0.7
			c0-0.3,0.2-0.6,0.6-0.6H227c0.3,0,0.6,0.2,0.6,0.6V5c0,0.3-0.2,0.6-0.6,0.6h-3c-0.3,0-0.6-0.2-0.6-0.6V4.2h-5
			c-0.3,0-0.6,0.2-0.6,0.6v8.4c0,0.3,0.2,0.6,0.6,0.6h2.2h2.8h3.6c0.3,0,0.6,0.2,0.6,0.6L227.6,17.9z"/>
	</g>
</g>
</svg>
