<?xml version="1.0" encoding="utf-8"?>
<!-- Generator: Adobe Illustrator 17.1.0, SVG Export Plug-In . SVG Version: 6.00 Build 0)  -->
<!DOCTYPE svg PUBLIC "-//W3C//DTD SVG 1.1//EN" "http://www.w3.org/Graphics/SVG/1.1/DTD/svg11.dtd">
<svg version="1.1" id="Layer_1" xmlns="http://www.w3.org/2000/svg" xmlns:xlink="http://www.w3.org/1999/xlink" x="0px" y="0px"
	 viewBox="0 0 34 34" enable-background="new 0 0 34 34" xml:space="preserve">
<g>
	<path d="M21.6,15.8c-0.5,0-0.9,0.1-1.2,0.4c-0.3,0.3-0.5,0.7-0.5,1.2h3.5c0-0.5-0.2-0.9-0.5-1.2C22.5,16,22.1,15.8,21.6,15.8z"/>
	<path d="M14.2,17.7c-0.2-0.1-0.6-0.2-1.1-0.2h-2.6v2.8h2.6c0.5,0,0.8-0.1,1.1-0.2c0.5-0.2,0.7-0.7,0.7-1.3
		C14.9,18.3,14.7,17.9,14.2,17.7z"/>
	<path d="M14.3,15.5c0.3-0.2,0.4-0.5,0.4-0.9c0-0.5-0.2-0.8-0.6-1c-0.3-0.1-0.7-0.2-1.2-0.2h-2.3v2.3h2.6
		C13.6,15.8,14,15.7,14.3,15.5z"/>
	<path d="M17,0C7.6,0,0,7.6,0,17c0,9.4,7.6,17,17,17c9.4,0,17-7.6,17-17C34,7.6,26.4,0,17,0z M19.4,12.1h4.5v1.3h-4.5V12.1z
		 M16.6,20.6c-0.2,0.3-0.4,0.6-0.7,0.8c-0.3,0.3-0.7,0.4-1.2,0.5c-0.5,0.1-1,0.1-1.5,0.1H8.5V11.6h5.1c1.3,0,2.2,0.4,2.7,1.1
		c0.3,0.4,0.5,1,0.5,1.6c0,0.6-0.2,1.2-0.5,1.5c-0.2,0.2-0.4,0.4-0.8,0.6c0.5,0.2,0.9,0.5,1.2,0.9c0.3,0.4,0.4,0.9,0.4,1.5
		C17.1,19.6,17,20.1,16.6,20.6z M25.5,18.8h-5.7c0,0.8,0.3,1.3,0.8,1.6c0.3,0.2,0.7,0.3,1.1,0.3c0.5,0,0.8-0.1,1.1-0.4
		c0.2-0.1,0.3-0.3,0.4-0.5h2.1c-0.1,0.5-0.3,0.9-0.8,1.4c-0.7,0.8-1.7,1.1-2.9,1.1c-1,0-1.9-0.3-2.7-1c-0.8-0.6-1.2-1.7-1.2-3.1
		c0-1.3,0.4-2.4,1.1-3.1c0.7-0.7,1.6-1.1,2.8-1.1c0.7,0,1.3,0.1,1.8,0.4c0.5,0.2,1,0.6,1.3,1.1c0.3,0.5,0.5,1,0.6,1.6
		C25.5,17.6,25.5,18.1,25.5,18.8z"/>
</g>
</svg>
